<?xml version="1.0" encoding="UTF-8" standalone="no"?>
<svg
   xmlns:dc="http://purl.org/dc/elements/1.1/"
   xmlns:cc="http://creativecommons.org/ns#"
   xmlns:rdf="http://www.w3.org/1999/02/22-rdf-syntax-ns#"
   xmlns:svg="http://www.w3.org/2000/svg"
   xmlns="http://www.w3.org/2000/svg"
   xmlns:sodipodi="http://sodipodi.sourceforge.net/DTD/sodipodi-0.dtd"
   xmlns:inkscape="http://www.inkscape.org/namespaces/inkscape"
   width="135.46666mm"
   height="135.46666mm"
   viewBox="0 0 135.46666 135.46666"
   version="1.1"
   id="svg8"
   inkscape:version="1.0.2 (e86c870879, 2021-01-15, custom)"
   sodipodi:docname="g-clef-selfmade-white.svg">
  <defs
     id="defs2">
    <inkscape:path-effect
       effect="bspline"
       id="path-effect865"
       is_visible="true"
       lpeversion="1"
       weight="33.333333"
       steps="2"
       helper_size="0"
       apply_no_weight="true"
       apply_with_weight="true"
       only_selected="false" />
    <inkscape:path-effect
       effect="bspline"
       id="path-effect861"
       is_visible="true"
       lpeversion="1"
       weight="33.333333"
       steps="2"
       helper_size="0"
       apply_no_weight="true"
       apply_with_weight="true"
       only_selected="false" />
    <inkscape:path-effect
       effect="bspline"
       id="path-effect857"
       is_visible="true"
       lpeversion="1"
       weight="33.333333"
       steps="2"
       helper_size="0"
       apply_no_weight="true"
       apply_with_weight="true"
       only_selected="false" />
    <inkscape:path-effect
       effect="bspline"
       id="path-effect853"
       is_visible="true"
       lpeversion="1"
       weight="33.333333"
       steps="2"
       helper_size="0"
       apply_no_weight="true"
       apply_with_weight="true"
       only_selected="false" />
  </defs>
  <sodipodi:namedview
     id="base"
     pagecolor="#ffffff"
     bordercolor="#666666"
     borderopacity="1.0"
     inkscape:pageopacity="0.0"
     inkscape:pageshadow="2"
     inkscape:zoom="1.6076602"
     inkscape:cx="364.2469"
     inkscape:cy="261.19975"
     inkscape:document-units="mm"
     inkscape:current-layer="layer1"
     inkscape:document-rotation="0"
     showgrid="false"
     fit-margin-top="0"
     fit-margin-left="0"
     fit-margin-right="0"
     fit-margin-bottom="0"
     inkscape:window-width="1920"
     inkscape:window-height="1017"
     inkscape:window-x="1912"
     inkscape:window-y="-8"
     inkscape:window-maximized="1" />
  <metadata
     id="metadata5">
    <rdf:RDF>
      <cc:Work
         rdf:about="">
        <dc:format>image/svg+xml</dc:format>
        <dc:type
           rdf:resource="http://purl.org/dc/dcmitype/StillImage" />
        <dc:title></dc:title>
      </cc:Work>
    </rdf:RDF>
  </metadata>
  <g
     inkscape:label="Layer 1"
     inkscape:groupmode="layer"
     id="layer1"
     transform="translate(-26.004765,-32.808338)">
    <path
       style="fill:#ffffff;stroke:none;stroke-width:0.264583px;stroke-linecap:butt;stroke-linejoin:miter;stroke-opacity:1"
       d="m 91.753069,74.168298 c -0.189101,-1.224986 -0.378153,-2.449648 -0.55634,-3.696933 -0.178187,-1.247285 -0.345441,-2.51679 -0.473625,-3.708384 -0.128183,-1.191593 -0.217272,-2.305193 -0.261828,-3.619292 -0.04456,-1.3141 -0.04456,-2.828599 0.01112,-4.231789 0.05567,-1.40319 0.167032,-2.694967 0.400888,-4.320891 0.233855,-1.625924 0.590208,-3.585861 1.002246,-5.2452 0.412038,-1.65934 0.879751,-3.017933 1.336341,-4.209534 0.456589,-1.191602 0.902029,-2.216113 1.369762,-3.095915 0.467733,-0.879802 0.957718,-1.614779 1.559088,-2.438882 0.601369,-0.824102 1.314074,-1.737255 1.948859,-2.47227 0.634784,-0.735014 1.191585,-1.291816 1.781817,-1.859774 0.590228,-0.567959 1.213848,-1.147028 1.748448,-1.536821 0.5346,-0.389793 0.98004,-0.590241 1.3476,-0.701587 0.36756,-0.111345 0.6571,-0.133619 0.94665,-0.144746 0.28955,-0.01113 0.57909,-0.01113 0.8798,0.05576 0.30071,0.06689 0.61251,0.20052 0.92432,0.378743 0.31181,0.178222 0.62362,0.400939 1.00223,0.746196 0.37862,0.345258 0.82406,0.81297 1.18038,1.280716 0.35632,0.467747 0.62359,0.935461 0.97995,1.559097 0.35637,0.623635 0.8018,1.403145 1.19716,2.260625 0.39535,0.85748 0.74064,1.792849 1.03011,2.728292 0.28947,0.935443 0.52313,1.870935 0.70682,2.850943 0.18369,0.980007 0.31743,2.00454 0.43998,3.040207 0.12255,1.035667 0.23392,2.082472 0.26731,3.118123 0.0334,1.035652 -0.0112,2.060186 -0.0446,3.029049 -0.0334,0.968863 -0.0557,1.882016 -0.13363,2.884273 -0.078,1.002257 -0.2116,2.093585 -0.35638,3.140396 -0.14477,1.04681 -0.30068,2.049052 -0.52341,3.084712 -0.22273,1.035661 -0.51227,2.104719 -0.90204,3.340841 -0.38978,1.236121 -0.87977,2.639258 -1.30295,3.708323 -0.42318,1.069064 -0.77953,1.80404 -1.22498,2.706083 -0.44545,0.902044 -0.97998,1.971101 -1.55907,2.951071 -0.57908,0.979971 -1.2027,1.870848 -1.78178,2.683798 -0.57909,0.81295 -1.11362,1.547927 -1.55906,2.104724 -0.44544,0.556798 -0.80179,0.935421 -1.15816,1.347478 -0.35638,0.412058 -0.71273,0.857497 -1.08022,1.269525 -0.36748,0.412028 -0.7461,0.79065 -1.102463,1.135872 -0.356358,0.345222 -0.690438,0.657032 -0.93291,0.884538 -0.242472,0.227507 -0.39333,0.370707 -0.544183,0.513902 0,0 1.287777,11.196638 1.287777,11.196638 0.400899,-0.01114 0.802059,-0.02228 1.219679,-0.02785 0.41762,-0.0056 0.85192,-0.0056 1.36421,0.02786 0.51229,0.03343 1.1025,0.100243 1.66489,0.194921 0.56239,0.09468 1.09692,0.217175 1.68715,0.417663 0.59023,0.200488 1.23612,0.478889 1.83748,0.762879 0.60136,0.283989 1.15816,0.573525 1.71497,0.913208 0.55682,0.339684 1.11362,0.729445 1.64258,1.158219 0.52896,0.42877 1.03008,0.89648 1.43096,1.31411 0.40089,0.41763 0.70156,0.78512 1.05235,1.23615 0.35079,0.45102 0.75169,0.98555 1.12475,1.51453 0.37305,0.52898 0.71827,1.05237 1.03563,1.62033 0.31736,0.56796 0.6069,1.18044 0.84074,1.73169 0.23385,0.55125 0.41202,1.04123 0.57906,1.54237 0.16704,0.50113 0.32294,1.01339 0.4844,1.64259 0.16147,0.6292 0.32851,1.37531 0.45099,2.09917 0.12248,0.72385 0.20043,1.42542 0.24496,2.27177 0.0445,0.84635 0.0557,1.83745 0.0222,2.73948 -0.0334,0.90203 -0.11138,1.71496 -0.22275,2.47778 -0.11138,0.76283 -0.25615,1.47553 -0.38979,2.02675 -0.13364,0.55123 -0.25613,0.94099 -0.40091,1.35303 -0.14477,0.41203 -0.31181,0.84634 -0.48999,1.26393 -0.17818,0.4176 -0.3675,0.8185 -0.55125,1.2027 -0.18375,0.38421 -0.36193,0.7517 -0.59021,1.14701 -0.22829,0.39532 -0.5067,0.81849 -0.77396,1.20825 -0.26727,0.38976 -0.5234,0.74611 -0.81294,1.10803 -0.28953,0.36191 -0.61247,0.7294 -1.04121,1.16927 -0.42874,0.43988 -0.96327,0.95214 -1.4811,1.40872 -0.51782,0.45658 -1.01895,0.85748 -1.5145,1.2194 -0.49555,0.36193 -0.98553,0.68487 -1.4421,0.95213 -0.45657,0.26727 -0.87974,0.47885 -1.30848,0.6793 -0.42874,0.20046 -0.86304,0.38977 -1.21939,0.53454 -0.35635,0.14478 -0.6349,0.24505 -0.91331,0.34528 0,0 1.03567,6.18061 1.03567,6.18061 0.13364,1.09135 0.26731,2.18299 0.39538,3.27435 0.12806,1.09137 0.25056,2.18269 0.33407,3.12927 0.0835,0.94658 0.12807,1.74862 0.17863,2.46922 0.0506,0.72061 0.10719,1.36085 0.12946,1.9731 0.0223,0.61224 0.0103,1.1974 -0.0613,1.86723 -0.0716,0.66982 -0.2025,1.42352 -0.31934,1.99702 -0.11683,0.57351 -0.2195,0.96654 -0.33217,1.33008 -0.11267,0.36354 -0.23533,0.69762 -0.4025,1.1208 -0.16717,0.42318 -0.37883,0.93543 -0.70739,1.50891 -0.32855,0.57349 -0.77399,1.20823 -1.21385,1.74275 -0.43987,0.53452 -0.87418,0.96883 -1.23052,1.29733 -0.35634,0.32851 -0.63475,0.55123 -0.98553,0.81293 -0.35078,0.2617 -0.77395,0.56237 -1.2695,0.87419 -0.495555,0.31181 -1.063494,0.63475 -1.575742,0.89088 -0.512249,0.25614 -0.968823,0.44545 -1.414264,0.61249 -0.445441,0.16705 -0.879743,0.31182 -1.308481,0.43989 -0.428737,0.12807 -0.851906,0.23943 -1.341884,0.32853 -0.489978,0.0891 -1.046775,0.15592 -1.469943,0.1949 -0.423168,0.039 -0.712702,0.0501 -1.06349,0.0501 -0.350788,0 -0.76282,-0.0111 -1.213836,-0.0334 -0.451015,-0.0223 -0.941006,-0.0557 -1.408722,-0.10021 -0.467716,-0.0445 -0.91316,-0.10022 -1.453265,-0.20607 -0.540104,-0.10585 -1.174842,-0.26189 -1.781776,-0.45673 -0.606934,-0.19483 -1.185997,-0.42849 -1.670432,-0.64564 -0.484436,-0.21716 -0.874191,-0.41782 -1.286245,-0.6628 -0.412054,-0.24499 -0.84635,-0.53431 -1.275107,-0.84047 -0.428758,-0.30616 -0.85192,-0.62915 -1.219435,-0.94098 -0.367516,-0.31182 -0.679327,-0.61249 -0.980022,-0.93543 -0.300695,-0.32294 -0.590228,-0.66815 -0.863079,-1.01337 -0.272852,-0.34523 -0.528977,-0.69044 -0.779568,-1.0802 -0.25059,-0.38977 -0.49558,-0.82407 -0.684932,-1.23611 -0.189351,-0.41205 -0.322984,-0.80181 -0.434368,-1.19715 -0.111383,-0.39535 -0.200471,-0.79625 -0.272869,-1.18602 -0.0724,-0.38978 -0.128078,-0.76841 -0.167069,-1.14148 -0.03899,-0.37308 -0.06126,-0.74056 -0.06128,-1.1916 -1.4e-5,-0.45104 0.02226,-0.98556 0.08906,-1.50343 0.0668,-0.51787 0.178162,-1.01899 0.295089,-1.44776 0.116928,-0.42877 0.239424,-0.78512 0.428744,-1.21946 0.18932,-0.43435 0.445444,-0.9466 0.645905,-1.30855 0.20046,-0.36196 0.34523,-0.57355 0.523412,-0.82412 0.178182,-0.25057 0.389768,-0.54011 0.618071,-0.8241 0.228304,-0.28399 0.473297,-0.56239 0.785136,-0.86309 0.311839,-0.3007 0.69046,-0.62364 1.01344,-0.86866 0.322979,-0.24501 0.590245,-0.41205 0.902075,-0.59023 0.311831,-0.17818 0.668181,-0.36749 1.063904,-0.5175 0.395724,-0.15 0.830888,-0.26073 1.261945,-0.34003 0.431056,-0.0793 0.8585,-0.1273 1.283177,-0.13972 0.424676,-0.0124 0.845786,0.0107 1.24013,0.0359 0.394345,0.0252 0.760984,0.0523 1.215967,0.15911 0.454982,0.1068 0.998058,0.29312 1.525732,0.57567 0.527673,0.28254 1.039929,0.66116 1.513204,1.0788 0.473274,0.41764 0.90758,0.87422 1.241647,1.26957 0.334066,0.39536 0.567922,0.72944 0.801744,1.18047 0.233823,0.45103 0.467681,1.01896 0.651403,1.57021 0.183723,0.55125 0.317355,1.08578 0.384133,1.78177 0.06678,0.696 0.06678,1.55348 0.0055,2.28844 -0.06127,0.73497 -0.183767,1.34745 -0.373092,1.9432 -0.189326,0.59576 -0.445454,1.17483 -0.723851,1.65922 -0.278397,0.48438 -0.579069,0.87414 -0.840769,1.20266 -0.2617,0.32851 -0.484422,0.59578 -0.812896,0.86301 -0.328474,0.26724 -0.762775,0.5345 -1.102418,0.72939 -0.339643,0.19488 -0.584634,0.31738 -0.807342,0.42317 -0.222709,0.10579 -0.423176,0.19489 -0.634684,0.22834 -0.211508,0.0335 -0.434516,0.0112 -0.657241,-0.0111 0.05568,0.078 0.111575,0.15621 0.189554,0.24528 0.07798,0.0891 0.178206,0.1893 0.334141,0.28947 0.155935,0.10017 0.367518,0.20039 0.584675,0.28946 0.217158,0.0891 0.439882,0.16703 0.773965,0.23938 0.334084,0.0724 0.77952,0.13917 1.224963,0.18369 0.445443,0.0445 0.890884,0.0668 1.430969,0.0334 0.540085,-0.0334 1.174843,-0.12252 1.698223,-0.22833 0.523381,-0.1058 0.935414,-0.2283 1.352988,-0.40091 0.417574,-0.17262 0.840745,-0.39534 1.247188,-0.66817 0.406443,-0.27282 0.796202,-0.59576 1.14141,-0.9187 0.345208,-0.32294 0.645877,-0.64589 0.94654,-1.0412 0.300664,-0.39531 0.601339,-0.86303 0.879736,-1.35857 0.27841,-0.49555 0.53453,-1.01894 0.72385,-1.43097 0.18932,-0.41203 0.31181,-0.7127 0.43988,-1.06905 0.12807,-0.35635 0.2617,-0.76838 0.36194,-1.24165 0.10024,-0.47326 0.16706,-1.00779 0.18936,-1.74833 0.0223,-0.74055 2e-5,-1.68711 -0.0222,-2.55575 -0.0223,-0.86863 -0.0445,-1.65928 -0.11133,-2.42768 -0.0668,-0.7684 -0.17816,-1.51451 -0.26168,-2.06018 -0.0835,-0.54568 -0.1392,-0.89089 -0.20602,-1.36419 -0.0668,-0.4733 -0.14478,-1.07465 -0.245,-1.77067 -0.10023,-0.69602 -0.22272,-1.48668 -0.37958,-2.42213 -0.15687,-0.93545 -0.34814,-2.01595 -0.539366,-3.09616 -0.376721,0.0557 -0.753222,0.11133 -1.108612,0.14475 -0.35539,0.0334 -0.689468,0.0446 -1.107082,0.0557 -0.417613,0.0111 -0.918733,0.0223 -1.637024,0.0167 -0.71829,-0.006 -1.653715,-0.0278 -2.32746,-0.0445 -0.673746,-0.0167 -1.085767,-0.0278 -1.61474,-0.0724 -0.528973,-0.0445 -1.174858,-0.12248 -1.670411,-0.20598 -0.495553,-0.0835 -0.840776,-0.17259 -1.308501,-0.30622 -0.467725,-0.13362 -1.057934,-0.3118 -1.603616,-0.47891 -0.545681,-0.16712 -1.046789,-0.32316 -1.625886,-0.57932 -0.579097,-0.25616 -1.236111,-0.61248 -1.826345,-0.95763 -0.590234,-0.34514 -1.113623,-0.67911 -1.57578,-0.96861 -0.462158,-0.28951 -0.863042,-0.53453 -1.225004,-0.81847 -0.361963,-0.28395 -0.684898,-0.60685 -1.046709,-0.90205 -0.361812,-0.29521 -0.76249,-0.56261 -1.12992,-0.88553 -0.36743,-0.32292 -0.701507,-0.70139 -1.052297,-1.08553 -0.350789,-0.38413 -0.718276,-0.77389 -1.046809,-1.14695 -0.328533,-0.37306 -0.618067,-0.72942 -0.88535,-1.08021 -0.267282,-0.35078 -0.512276,-0.696 -0.857464,-1.18043 -0.345187,-0.48443 -0.790541,-1.10804 -1.185908,-1.73167 -0.395366,-0.62364 -0.740651,-1.24724 -1.074792,-1.83191 -0.334141,-0.58466 -0.657098,-1.1303 -0.896568,-1.60917 -0.23947,-0.47888 -0.395344,-0.8909 -0.534652,-1.29738 -0.139308,-0.40648 -0.262011,-0.80738 -0.451424,-1.36976 -0.189413,-0.56239 -0.445541,-1.28623 -0.657155,-2.0268 -0.211613,-0.74058 -0.378653,-1.49783 -0.523428,-2.18828 -0.144776,-0.69045 -0.267274,-1.31407 -0.356384,-2.03794 -0.08911,-0.72387 -0.144791,-1.54794 -0.178208,-2.57806 -0.03342,-1.03012 -0.04455,-2.26622 0.0055,-3.2351 0.0501,-0.96889 0.161456,-1.67046 0.261681,-2.27182 0.100225,-0.60136 0.189313,-1.10248 0.31181,-1.70386 0.122498,-0.60137 0.278403,-1.30294 0.478853,-2.02125 0.200451,-0.71832 0.445442,-1.453291 0.746123,-2.221717 0.300681,-0.768427 0.657034,-1.57022 1.041239,-2.372046 0.384205,-0.801827 0.796237,-1.60362 1.308514,-2.472274 0.512277,-0.868653 1.124758,-1.804078 1.798511,-2.778517 0.673753,-0.974439 1.408729,-1.987815 2.115895,-2.88987 0.707165,-0.902055 1.386462,-1.692712 2.171579,-2.572489 0.785117,-0.879777 1.675998,-1.84861 2.639302,-2.817482 0.963304,-0.968872 1.998952,-1.937703 2.939971,-2.823041 0.941019,-0.885337 1.787356,-1.687131 2.578037,-2.427699 0.790682,-0.740567 1.525658,-1.419863 2.165949,-1.982254 0.640291,-0.56239 1.185813,-1.007807 1.731374,-1.453256 0,0 3.04e-4,2.3e-5 3.04e-4,2.3e-5 z"
       id="path851"
       sodipodi:nodetypes="ccccccccccccccccccccczzzzcccccccccccccccccccccccccccccccccccccccccccccccccccccccccccccccccccccccccccccccccccccccccccccccccccccccccccccccccccccccccccccccccccccccccccccccccccccccsccccccccccccccccccccccccccc" />
    <path
       style="opacity:1;fill:none;stroke:none;stroke-width:0.264583px;stroke-linecap:butt;stroke-linejoin:miter;stroke-opacity:1"
       d="m 101.36377,110.15172 2.69681,20.34578 0.37821,-0.34912 c 0.17032,-0.16478 0.32527,-0.31468 0.51805,-0.54076 0.19279,-0.22607 0.39301,-0.49906 0.54969,-0.74221 0.15668,-0.24314 0.39318,-0.65102 0.57884,-0.99673 0.18567,-0.34571 0.357,-0.69218 0.54608,-1.0859 0.18908,-0.39373 0.39589,-0.83469 0.5692,-1.31501 0.17331,-0.48032 0.3131,-1.00002 0.46962,-1.64573 0.15652,-0.64572 0.32975,-1.41739 0.4223,-2.16545 0.0926,-0.74805 0.10439,-1.47248 0.11031,-2.14183 0.006,-0.66934 0.006,-1.28353 -0.0491,-1.86623 -0.055,-0.5827 -0.16499,-1.13391 -0.30663,-1.65362 -0.14165,-0.51972 -0.31498,-1.00794 -0.53458,-1.47253 -0.21959,-0.4646 -0.48551,-0.90557 -0.79168,-1.29932 -0.30617,-0.39376 -0.65264,-0.74023 -1.02273,-1.0631 -0.37009,-0.32288 -0.76381,-0.62211 -1.14966,-0.88986 -0.38585,-0.26775 -0.76382,-0.50398 -1.14179,-0.69301 -0.37798,-0.18902 -0.75595,-0.33076 -1.06309,-0.39383 -0.30714,-0.0631 -0.54362,-0.0473 -0.77985,-0.0316 l -4e-5,5e-5 z"
       id="path855"
       sodipodi:nodetypes="cccccccccccccccccccccc" />
    <path
       style="fill:none;stroke:none;stroke-width:0.264583px;stroke-linecap:butt;stroke-linejoin:miter;stroke-opacity:1;opacity:1"
       d="m 96.450077,110.81317 c 0,0 2.704745,21.5679 2.704745,21.5679 -0.299352,0.0744 -0.59851,0.1488 -1.080783,0.20703 -0.482273,0.0582 -1.147469,0.10022 -1.842312,0.12206 -0.694843,0.0219 -1.419284,0.0235 -2.120109,-0.015 -0.700825,-0.0385 -1.378016,-0.11726 -2.055222,-0.22749 -0.677207,-0.11023 -1.354401,-0.25197 -2.007983,-0.44881 -0.653583,-0.19683 -1.283532,-0.44881 -1.842627,-0.68504 -0.559094,-0.23623 -1.047306,-0.45671 -1.59066,-0.76379 -0.543354,-0.30708 -1.1418,-0.70079 -1.763844,-1.14176 -0.622044,-0.44097 -1.267608,-0.92916 -1.762768,-1.3465 -0.49516,-0.41734 -0.83981,-0.7638 -1.22383,-1.18115 -0.38402,-0.41735 -0.807328,-0.90554 -1.216021,-1.41739 -0.408692,-0.51186 -0.802671,-1.0473 -1.204366,-1.66939 -0.401695,-0.62209 -0.811007,-1.33076 -1.133876,-1.98436 -0.322869,-0.6536 -0.55919,-1.25203 -0.77272,-1.92925 -0.213529,-0.67723 -0.404188,-1.43315 -0.532002,-2.22851 -0.127814,-0.79535 -0.192713,-1.63003 -0.193687,-2.39389 -9.73e-4,-0.76386 0.06202,-1.4568 0.180132,-2.22852 0.11811,-0.77173 0.291346,-1.62216 0.480331,-2.38601 0.188986,-0.76386 0.393717,-1.44105 0.637828,-2.10253 0.24411,-0.66149 0.527588,-1.30719 0.842571,-2.00015 0.314983,-0.69297 0.661454,-1.43316 1.015814,-2.11039 0.35436,-0.67723 0.716579,-1.29144 1.07094,-1.85054 0.35436,-0.55911 0.700833,-1.06307 1.047319,-1.5513 0.346485,-0.48823 0.692956,-0.96069 1.094564,-1.472543 0.401609,-0.511856 0.858322,-1.063063 1.311113,-1.5946 0.452791,-0.531538 0.90163,-1.043372 1.366237,-1.543417 0.464608,-0.500044 0.944942,-0.988253 1.385919,-1.433167 0.440976,-0.444914 0.842569,-0.846507 1.279614,-1.263864 0.437045,-0.417358 0.909508,-0.850447 1.395812,-1.30717 0.486305,-0.456723 0.986419,-0.937048 1.422501,-1.343456 0.436081,-0.406407 0.808067,-0.738839 1.184032,-1.067402 0.375966,-0.328564 0.755849,-0.653206 1.13576,-0.977873 0,0 0.944939,8.963892 0.944939,8.963892 -0.417349,0.196862 -0.834584,0.393671 -1.29526,0.633848 -0.460676,0.240178 -0.964633,0.523654 -1.425318,0.81896 -0.460684,0.295305 -0.878025,0.602402 -1.287506,0.909512 -0.409481,0.30711 -0.811074,0.61421 -1.157571,0.90558 -0.346497,0.29138 -0.637847,0.56698 -0.937092,0.87804 -0.299244,0.31105 -0.606342,0.65752 -0.885895,0.98827 -0.279554,0.33074 -0.531532,0.64571 -0.779586,0.97251 -0.248054,0.3268 -0.49216,0.6654 -0.748089,1.05521 -0.25593,0.3898 -0.523662,0.83077 -0.74415,1.20875 -0.220488,0.37799 -0.393726,0.69297 -0.559094,1.03553 -0.165368,0.34256 -0.322854,0.71265 -0.45672,1.08672 -0.133866,0.37407 -0.244107,0.75204 -0.338601,1.08671 -0.09449,0.33467 -0.173233,0.62602 -0.25691,1.06308 -0.08368,0.43707 -0.172293,1.01975 -0.241096,1.63005 -0.0688,0.6103 -0.117803,1.24812 -0.09478,2.01783 0.02303,0.76971 0.118021,1.67118 0.230161,2.42716 0.112139,0.75598 0.241374,1.36635 0.396577,1.92354 0.155203,0.55719 0.336315,1.06115 0.525319,1.52969 0.189005,0.46853 0.385865,0.90162 0.606373,1.32685 0.220509,0.42523 0.464612,0.84257 0.712681,1.2166 0.248069,0.37403 0.500047,0.70475 0.775669,1.03942 0.275622,0.33466 0.574849,0.67326 0.913471,1.01579 0.338622,0.34253 0.71659,0.689 1.102452,1.01972 0.385862,0.33072 0.779583,0.6457 1.185135,0.90946 0.405552,0.26376 0.822893,0.47637 1.240246,0.64564 0.417354,0.16927 0.834696,0.29526 1.318951,0.34638 0.484255,0.0511 1.035457,0.0275 1.42914,-0.0277 0.393682,-0.0551 0.6299,-0.14176 0.79911,-0.2559 0.169211,-0.11413 0.271577,-0.25587 0.330639,-0.38571 0.05906,-0.12984 0.07481,-0.24796 0.04339,-0.40934 -0.03142,-0.16138 -0.110165,-0.36612 -0.212503,-0.57479 -0.102338,-0.20868 -0.228328,-0.42129 -0.460611,-0.75597 -0.232283,-0.33468 -0.570879,-0.79139 -0.842559,-1.16937 -0.271679,-0.37797 -0.476415,-0.6772 -0.669344,-0.96462 -0.19293,-0.28742 -0.374038,-0.56302 -0.535467,-0.80713 -0.161428,-0.24412 -0.303163,-0.45672 -0.417397,-0.69689 -0.114234,-0.24018 -0.200851,-0.5079 -0.287481,-0.80713 -0.08663,-0.29924 -0.17325,-0.62997 -0.224471,-1.04341 -0.05122,-0.41343 -0.06697,-0.90951 -0.05911,-1.39382 0.0079,-0.4843 0.03936,-0.95675 0.08659,-1.34263 0.04723,-0.38587 0.11023,-0.6851 0.212594,-1.02374 0.102364,-0.33863 0.244102,-0.7166 0.409471,-1.08279 0.165368,-0.3662 0.35435,-0.72054 0.570911,-1.06311 0.21656,-0.34257 0.460663,-0.67329 0.736296,-0.98043 0.275634,-0.30714 0.582736,-0.59061 0.917419,-0.87017 0.334684,-0.27955 0.696906,-0.55516 0.964655,-0.7481 0.267748,-0.19293 0.440982,-0.30317 0.633993,-0.3701 0.193011,-0.0669 0.405385,-0.0905 0.617996,-0.11417 0,0 7e-6,5.2e-4 7e-6,5.2e-4 z"
       id="path859"
       sodipodi:nodetypes="cccccccccccccccccccccccccccccccccccccccccccccccccccccccccccccccccccccccccccccccccccc" />
    <path
       style="fill:none;stroke:none;stroke-width:0.264583px;stroke-linecap:butt;stroke-linejoin:miter;stroke-opacity:1"
       d="m 95.962563,70.76061 c 0.334087,-0.278406 0.668199,-0.556833 1.041264,-0.874217 0.373065,-0.317384 0.785099,-0.673738 1.191563,-1.05793 0.406464,-0.384193 0.807359,-0.796225 1.247235,-1.297349 0.439876,-0.501123 0.918725,-1.091333 1.369745,-1.648149 0.45102,-0.556816 0.87419,-1.080208 1.33077,-1.731664 0.45658,-0.651456 0.94657,-1.430974 1.37531,-2.160393 0.42875,-0.729419 0.79623,-1.408717 1.13032,-2.088019 0.33409,-0.679303 0.63476,-1.358599 0.91317,-2.037905 0.27841,-0.679306 0.53454,-1.358604 0.74614,-2.021196 0.21159,-0.662592 0.37863,-1.30848 0.50114,-1.937661 0.12251,-0.629181 0.20046,-1.241663 0.23388,-1.887551 0.0334,-0.645887 0.0223,-1.325184 -0.0166,-1.848569 -0.0389,-0.523384 -0.10577,-0.890882 -0.25604,-1.263948 -0.15028,-0.373066 -0.38413,-0.751688 -0.62351,-1.041268 -0.23939,-0.28958 -0.48438,-0.49003 -0.71823,-0.634855 -0.23385,-0.144824 -0.45657,-0.233912 -0.74614,-0.278522 -0.28957,-0.04461 -0.64593,-0.04461 -0.98562,-0.01122 -0.33968,0.03339 -0.66263,0.100207 -0.97453,0.250554 -0.3119,0.150347 -0.61257,0.384201 -0.92442,0.684907 -0.31184,0.300706 -0.63478,0.668193 -1.01343,1.191629 -0.37866,0.523437 -0.812958,1.202732 -1.213871,1.954463 -0.400914,0.751731 -0.768402,1.575796 -1.091356,2.338642 -0.322953,0.762846 -0.601354,1.464415 -0.868625,2.204993 -0.267271,0.740578 -0.523399,1.520098 -0.774034,2.522393 -0.250636,1.002295 -0.49577,2.227231 -0.65734,3.151569 -0.161569,0.924339 -0.239566,1.547943 -0.289724,2.205007 -0.05016,0.657064 -0.07249,1.347484 -0.08915,2.132606 -0.01666,0.785123 -0.02766,1.664851 -0.0053,2.383165 0.02235,0.718314 0.07801,1.275107 0.111505,1.731608 0.03349,0.456501 0.04481,0.812416 0.05615,1.168609 0,0 -2.02e-4,-0.09973 -2.02e-4,-0.09973 z"
       id="path863"
       sodipodi:nodetypes="cccccccccccccccccccccccccccccccc" />
    <path
       style="opacity:1;fill:#ffffff;stroke:none;stroke-width:0.714286"
       d="m 240.22632,510.396 c -17.8605,-2.07811 -36.6787,-14.49196 -43.82159,-28.90791 -4.14229,-8.36005 -5.07998,-20.36184 -2.32771,-29.79319 2.80049,-9.59661 11.54057,-20.30526 19.90149,-24.38399 3.68736,-1.79881 5.31918,-2.13085 11.83504,-2.4082 6.57438,-0.27985 8.00116,-0.12566 10.96371,1.18482 11.12872,4.92276 18.52793,15.16133 20.00027,27.67514 0.99714,8.47488 -2.25028,19.31876 -7.68365,25.65749 -2.89727,3.38004 -8.97919,6.89925 -12.87075,7.44746 l -2.74674,0.38694 1.54361,1.95795 c 2.42646,3.07779 7.98843,4.35865 17.10933,3.94008 9.02228,-0.41403 13.59391,-1.94943 19.38861,-6.51173 6.52958,-5.14089 13.22512,-16.98248 15.04422,-26.6069 1.71866,-9.09297 -0.58207,-34.848 -5.21074,-58.33049 -1.42855,-7.24742 -1.60384,-7.66282 -3.02048,-7.15776 -2.91389,1.03887 -28.99001,0.3931 -35.07534,-0.86862 -8.42062,-1.74593 -16.86063,-5.14778 -25.71429,-10.36445 -15.73258,-9.2698 -30.8606,-27.04653 -41.70999,-49.01281 -7.45596,-15.09577 -9.97094,-25.36236 -10.56216,-43.1167 -0.33528,-10.06829 -0.16702,-13.08679 1.15467,-20.71429 3.55857,-20.53668 12.43671,-38.88653 29.35974,-60.68246 8.24632,-10.6208 27.93581,-30.2726 50.92706,-50.82958 l 2.74075,-2.45056 -2.34434,-16.41155 c -4.64559,-32.52145 -2.83878,-61.206083 5.44889,-86.506097 5.59972,-17.094432 13.66964,-29.950102 26.94615,-42.926175 11.77239,-11.50598413 17.87473,-12.3671834 26.30485,-3.7122984 6.64331,6.8204284 11.39085,18.7397434 15.91126,39.9472944 3.29986,15.481272 4.34916,26.332807 3.79879,39.285715 -1.55844,36.677711 -14.54639,69.586231 -38.83371,98.395831 -3.72727,4.42128 -8.48027,9.56414 -10.56224,11.42858 l -3.78539,3.38987 2.39501,20.35715 c 1.31726,11.19643 2.40822,21 2.42434,21.78571 0.0273,1.32762 0.54726,1.43519 7.35877,1.52217 4.03119,0.0515 9.41509,0.61325 11.96421,1.2484 6.86318,1.71004 18.18803,7.56661 23.88159,12.35021 5.65104,4.74786 13.41258,14.58644 17.214,21.82056 9.17033,17.45116 11.7968,41.19655 6.74259,60.95832 -1.73013,6.76477 -6.79857,17.59508 -10.96157,23.42286 -3.97159,5.55982 -14.17317,15.37942 -19.66588,18.92953 -2.31715,1.49764 -6.9786,3.96856 -10.35877,5.49092 -3.38017,1.52235 -6.14576,3.05365 -6.14576,3.40287 0,0.34923 0.94958,6.30928 2.11019,13.24455 3.82671,22.86675 4.65869,31.92626 4.66743,50.8239 0.008,16.57903 -0.0777,17.71223 -1.62253,21.53273 -3.81639,9.4384 -10.90407,17.91674 -20.14555,24.09826 -13.17728,8.81414 -25.98748,11.86975 -41.96739,10.01045 z m 32.85071,-132.45854 c 2.65178,-0.24171 4.82142,-0.56641 4.82142,-0.72157 0,-0.15515 -2.41071,-18.66255 -5.35714,-41.12753 -2.94643,-22.465 -5.35714,-41.11604 -5.35714,-41.44677 0,-1.11222 -3.19367,-0.60855 -5.65474,0.89181 -4.18264,2.54988 -10.38035,9.38084 -12.38143,13.64648 -3.72087,7.93168 -4.28511,19.23578 -1.29728,25.99026 0.7199,1.62745 3.75728,6.54893 6.74975,10.93662 2.99246,4.38769 5.44084,8.43853 5.44084,9.00186 0,1.63059 -2.43363,2.50308 -6.98181,2.50308 -6.23353,0 -11.88555,-3.05852 -19.08962,-10.33013 -6.48612,-6.54692 -9.73651,-11.62295 -12.57007,-19.63026 -5.36425,-15.15873 -4.26602,-34.43079 2.68871,-47.18247 7.46686,-13.6907 18.57454,-24.71733 31.05806,-30.83144 2.83924,-1.39059 4.87132,-2.84041 4.87995,-3.48166 0.0274,-2.03531 -3.56325,-33.78874 -3.85361,-34.0791 -0.51669,-0.51669 -22.77617,19.41973 -28.56989,25.58825 -11.89532,12.66484 -19.94356,23.771 -25.78706,35.58481 -7.50425,15.17134 -10.32443,26.0229 -10.32249,39.71914 6.6e-4,4.71429 0.44934,10.68543 0.99706,13.26921 2.52233,11.89874 11.24825,25.21011 22.55077,34.40116 10.86883,8.83838 21.1417,14.21903 31.07143,16.27439 4.5616,0.94421 17.37919,1.98984 20.35714,1.66069 0.98215,-0.10855 3.95536,-0.39513 6.60715,-0.63683 z m 26.99901,-14.74057 c 3.54745,-4.48785 5.34358,-7.91858 7.56482,-14.4493 3.92772,-11.54796 5.20673,-27.5047 2.85162,-35.57615 -2.53763,-8.69695 -13.73269,-19.43331 -22.25143,-21.33972 -2.15755,-0.48284 -4.04047,-0.74594 -4.18426,-0.58467 -0.14379,0.16127 1.93724,17.00751 4.62451,37.43608 2.68727,20.42857 4.89618,37.38393 4.90869,37.67857 0.0125,0.29464 0.81885,0.53571 1.79186,0.53571 1.27855,0 2.58019,-1.0261 4.69419,-3.70052 z M 273.48368,136.3617 c 13.0586,-12.98886 21.75452,-25.83796 27.91688,-41.25 3.96684,-9.921071 5.10352,-14.594536 5.55929,-22.857143 0.5088,-9.224073 -0.37977,-12.577771 -4.39687,-16.594866 -2.80076,-2.800767 -3.34715,-3.047991 -6.73634,-3.047991 -2.02859,0 -4.72267,0.444733 -5.98684,0.988297 -7.16091,3.079028 -16.61842,19.78696 -22.2847,39.368846 -3.80498,13.149517 -5.49035,23.576097 -5.59969,34.642857 -0.0993,10.05255 0.92089,17.14286 2.46667,17.14286 0.34302,0 4.42074,-3.77679 9.0616,-8.39286 z"
       id="path867"
       transform="matrix(0.26458333,0,0,0.26458333,26.004765,32.808338)" />
    <path
       style="opacity:1;fill:#ffffff;stroke:none;stroke-width:0.714286"
       d="m 240.39845,510.50308 c -17.83242,-2.07499 -36.86612,-14.62982 -43.99644,-29.02051 -2.16308,-4.3656 -4.15722,-13.19683 -4.18052,-18.51373 -0.0427,-9.74319 4.85811,-20.98509 12.45544,-28.57143 7.19048,-7.18008 11.42271,-9.08122 21.13662,-9.4947 6.57438,-0.27985 8.00116,-0.12566 10.96371,1.18482 11.12872,4.92276 18.52793,15.16133 20.00027,27.67514 0.99714,8.47488 -2.25028,19.31876 -7.68365,25.65749 -2.91978,3.4063 -8.97616,6.8939 -12.98114,7.47527 l -2.85714,0.41475 2.34865,2.24848 c 3.1601,3.02533 8.08034,4.06478 17.04883,3.60174 8.09256,-0.41781 12.65158,-1.90449 18.0959,-5.90098 6.50777,-4.77715 13.04922,-15.74231 15.45825,-25.91202 1.55412,-6.56075 0.91822,-22.89319 -1.54987,-39.80713 -1.79656,-12.31185 -4.2524,-25.61945 -4.93037,-26.71643 -0.17641,-0.28544 -2.66893,-0.24819 -5.53893,0.0828 -5.98622,0.69033 -22.13999,0.14996 -29.50389,-0.98697 -10.46598,-1.61587 -24.45176,-7.8952 -34.71556,-15.5866 -11.98191,-8.9789 -25.32309,-26.18751 -34.13729,-44.03323 -7.49349,-15.17176 -9.95168,-25.13542 -10.54944,-42.75956 -0.35247,-10.39213 -0.1936,-13.41691 1.10188,-20.97951 3.49726,-20.4159 12.48204,-38.98501 29.41657,-60.79606 8.1029,-10.43625 32.51852,-34.80886 51.25051,-51.16024 l 2.36667,-2.06589 -2.33049,-16.42772 c -2.07599,-14.63376 -2.33314,-18.22177 -2.35471,-32.85629 -0.0182,-12.313103 0.29475,-18.48631 1.24911,-24.64286 5.25198,-33.880674 14.18203,-53.048265 33.52066,-71.949282 11.77239,-11.50598413 17.87473,-12.3671834 26.30485,-3.7122984 7.60574,7.8085174 13.22539,23.6065174 18.27537,51.3758664 1.76975,9.731643 1.76441,33.799864 -0.01,45.000004 -4.83865,30.54212 -17.08205,57.16472 -37.34107,81.19612 -3.70088,4.39 -8.43635,9.54236 -10.52325,11.44968 l -3.79438,3.46784 2.36115,20.6613 c 1.29863,11.36371 2.45236,21.13188 2.56385,21.70704 0.15928,0.82177 1.75783,1.08414 7.46339,1.22502 3.99339,0.0986 9.29696,0.68629 11.78571,1.30597 6.76225,1.68373 18.1121,7.5669 23.77184,12.32209 5.83678,4.90392 13.55482,14.78642 17.46036,22.35696 9.03464,17.51281 11.53134,40.73482 6.49623,60.42192 -1.73013,6.76477 -6.79857,17.59508 -10.96157,23.42286 -3.56606,4.99212 -13.46045,14.73776 -18.43938,18.16217 -2.81858,1.93857 -14.5528,8.02733 -17.11826,8.88248 -0.54179,0.1806 -0.0884,4.49017 1.45243,13.80484 3.51323,21.23867 4.43077,30.20739 4.85654,47.47125 0.44941,18.22238 0.009,21.66801 -3.72494,29.11573 -6.9363,13.83663 -21.01883,24.65093 -37.88359,29.09167 -5.22361,1.37545 -15.42433,1.88881 -22.09893,1.11215 z m 32.67858,-132.56562 c 2.65178,-0.24171 4.82142,-0.51747 4.82142,-0.61282 0,-0.0953 -2.41071,-18.58766 -5.35714,-41.09405 -2.94643,-22.50638 -5.35714,-41.20636 -5.35714,-41.55551 0,-1.09071 -3.11651,-0.68964 -5.35714,0.68941 -10.72946,6.60371 -16.93578,19.12172 -15.77678,31.82143 0.5723,6.27108 1.84755,9.09309 8.55022,18.92084 2.99246,4.38769 5.44084,8.43853 5.44084,9.00186 0,1.63059 -2.43363,2.50308 -6.98181,2.50308 -6.23353,0 -11.88555,-3.05852 -19.08962,-10.33013 -6.52598,-6.58715 -9.73601,-11.62155 -12.63667,-19.81845 -2.92835,-8.27517 -3.90977,-17.25649 -2.92848,-26.79953 1.00594,-9.7828 2.81411,-15.45718 7.35026,-23.0665 7.04757,-11.82218 16.20382,-20.72353 28.30085,-27.51298 3.29201,-1.84764 5.98547,-3.74021 5.98547,-4.20572 0,-1.72278 -3.62728,-33.56064 -3.8488,-33.78215 -0.28057,-0.28058 -9.83689,7.87391 -18.95383,16.17346 -18.85836,17.16759 -34.32683,38.96124 -41.10521,57.91343 -4.47776,12.51972 -5.97955,29.03226 -3.64293,40.05492 4.59554,21.67884 27.96322,44.05926 52.59033,50.36844 4.35904,1.11673 17.885,2.36277 21.38901,1.97039 0.98215,-0.10998 3.95536,-0.39772 6.60715,-0.63942 z m 26.99901,-14.74057 c 7.23469,-9.15255 11.48351,-23.55081 11.51883,-39.03449 0.0199,-8.73199 -1.01672,-12.61924 -4.94754,-18.55273 -4.40757,-6.6531 -14.38493,-13.58695 -20.02273,-13.91495 -2.27537,-0.13238 -2.63172,0.0497 -2.49376,1.27412 0.0885,0.78572 2.25817,17.58782 4.82143,37.33802 2.56326,19.75019 4.66047,36.06269 4.66047,36.25 0,0.1873 0.7961,0.34055 1.76911,0.34055 1.27855,0 2.58019,-1.0261 4.69419,-3.70052 z M 270.44857,139.43316 c 20.85833,-18.78242 36.74756,-48.987939 36.73161,-69.827061 -0.006,-7.242883 -1.04306,-10.372277 -4.62711,-13.956328 -2.77505,-2.775049 -3.35138,-3.038071 -6.65699,-3.038071 -4.71258,0 -7.03633,0.929956 -10.36905,4.14967 -14.95242,14.445384 -27.93968,63.51819 -22.49118,84.98362 0.42745,1.68402 1.02978,2.96973 1.33849,2.85714 0.30871,-0.11259 3.04211,-2.43863 6.07423,-5.16897 z"
       id="path869"
       transform="matrix(0.26458333,0,0,0.26458333,26.004765,32.808338)" />
    <path
       style="opacity:1;fill:#ffffff;stroke:none;stroke-width:0.714286"
       d="m 240.39845,510.43328 c -18.25758,-2.02979 -37.60624,-15.0053 -44.45336,-29.81112 -1.83577,-3.96956 -3.70242,-12.81922 -3.7236,-17.65332 -0.0427,-9.74319 4.85811,-20.98509 12.45544,-28.57143 7.19048,-7.18008 11.42271,-9.08122 21.13662,-9.4947 6.57438,-0.27985 8.00116,-0.12566 10.96371,1.18482 11.07749,4.9001 18.50507,15.13112 20.03404,27.5956 1.02575,8.36217 -2.29322,19.40896 -7.74085,25.7644 -2.94753,3.43872 -10.08772,7.44988 -13.2614,7.44988 -2.02401,0 -2.17095,0.1413 -1.48327,1.42624 0.41981,0.78444 2.11862,2.15051 3.77513,3.03571 2.69662,1.44104 3.98366,1.60502 12.29754,1.56685 10.66565,-0.0489 14.64794,-1.18647 20.53309,-5.86507 6.82211,-5.42347 13.20346,-16.28314 15.28671,-26.0147 2.00622,-9.37166 -0.21825,-36.77513 -4.78806,-58.98478 -0.76388,-3.71254 -1.38888,-6.80657 -1.38888,-6.87563 0,-0.0691 -6.66964,-0.14664 -14.82143,-0.17241 -8.48672,-0.0269 -17.11108,-0.43558 -20.17857,-0.95638 -11.12418,-1.88867 -24.77955,-8.0108 -35.0727,-15.72418 -11.71116,-8.77601 -24.93596,-25.68712 -33.82346,-43.2515 -7.49307,-14.80857 -10.26566,-25.92145 -10.86327,-43.54129 -0.35247,-10.39213 -0.1936,-13.41691 1.10188,-20.97951 3.5318,-20.61756 12.22871,-38.58335 29.43025,-60.79606 8.05428,-10.40066 32.45852,-34.76842 51.23683,-51.16024 l 2.36667,-2.06589 -2.33896,-16.42772 c -2.12792,-14.94543 -2.33756,-17.97454 -2.32332,-33.57058 0.0131,-14.370434 0.27132,-18.644584 1.59661,-26.42857 5.61966,-33.006617 14.15129,-50.880259 33.15024,-69.449282 11.70565,-11.44075649 17.74902,-12.3375285 26.19891,-3.8876405 7.55686,7.5568665 13.32009,23.7200955 18.38131,51.5512085 1.76975,9.731643 1.76441,33.799864 -0.01,45.000004 -4.83865,30.54212 -17.08205,57.16472 -37.34107,81.19612 -3.70088,4.39 -8.43924,9.545 -10.52968,11.45555 l -3.8008,3.47372 2.46424,21.40159 c 1.35534,11.77087 2.52681,21.47002 2.60329,21.55366 0.0765,0.0836 3.54566,0.33347 7.70929,0.55518 9.74475,0.51891 14.30069,1.70753 23.07801,6.02088 8.93805,4.39235 15.60651,9.93748 21.97533,18.2735 15.0402,19.68582 20.44032,47.33552 14.09238,72.15573 -1.73654,6.78984 -6.79959,17.61449 -10.96873,23.45087 -3.56606,4.99212 -13.46045,14.73776 -18.43938,18.16217 -2.80087,1.92639 -14.54733,8.0255 -17.08685,8.87201 -0.50238,0.16746 -0.12325,4.08246 1.12937,11.66198 3.6273,21.94874 4.7305,32.51464 5.14401,49.26704 0.45732,18.52644 0.0575,21.73707 -3.65741,29.37122 -7.24425,14.8869 -23.6864,26.66375 -41.83158,29.96224 -5.83715,1.06109 -10.50214,1.13123 -18.21429,0.27383 z m 32.73081,-132.50142 4.87366,-0.44505 -0.40827,-2.61613 c -0.64682,-4.14479 -10.41048,-79.25164 -10.41048,-80.08254 0,-2.99777 -9.68487,2.7288 -14.15039,8.36698 -6.42762,8.11553 -8.74565,20.06211 -5.86342,30.21864 0.39766,1.40128 3.4563,6.65358 6.79699,11.67178 3.34068,5.0182 6.07396,9.56575 6.07396,10.10566 0,1.58918 -2.47243,2.4605 -6.98181,2.4605 -5.4078,0 -11.03349,-2.70997 -17.1885,-8.27994 -13.55952,-12.27066 -19.85932,-30.49627 -17.38357,-50.29149 1.06123,-8.48529 3.06184,-14.38816 7.26756,-21.44318 7.04757,-11.82218 16.20382,-20.72353 28.30085,-27.51298 3.29201,-1.84764 5.98547,-3.67085 5.98547,-4.05157 0,-1.45085 -3.66079,-33.7483 -3.84627,-33.93378 -0.28629,-0.28628 -11.82681,9.64803 -20.28247,17.45955 -23.85524,22.038 -39.90726,48.62962 -43.73875,72.45719 -1.3804,8.58454 -0.61274,21.80519 1.67288,28.81049 6.40887,19.6428 28.8172,39.94334 50.12318,45.40845 5.43043,1.39295 18.67012,2.7713 22.5,2.34244 0.98215,-0.10998 3.97887,-0.40024 6.65938,-0.64502 z m 25.93405,-13.58445 c 7.90054,-8.37702 12.81043,-25.22265 12.2681,-42.09135 -0.25719,-7.99973 -0.43061,-8.87339 -2.59369,-13.06661 -4.12607,-7.99855 -14.33134,-16.29554 -21.73212,-17.66842 -2.594,-0.4812 -2.67857,-0.43144 -2.67857,1.57573 0,1.13995 2.08928,18.05658 4.64285,37.59253 2.55357,19.53594 4.64286,35.67475 4.64286,35.86401 0,0.18926 0.68526,0.34411 1.5228,0.34411 0.83754,0 2.60504,-1.1475 3.92777,-2.55 z M 270.09989,139.65959 c 20.97579,-18.4836 37.06836,-49.136319 37.0749,-70.619319 0.002,-6.301639 -0.95861,-9.300442 -4.10968,-12.830575 -2.92271,-3.2743 -6.2151,-4.230298 -11.29002,-3.278236 -10.04786,1.884989 -23.55676,29.768661 -28.56746,58.96595 -1.43838,8.38142 -1.64118,23.991 -0.37816,29.10715 0.50916,2.0625 1.05237,3.75 1.20712,3.75 0.15476,0 2.88324,-2.29274 6.0633,-5.09497 z"
       id="path871"
       transform="matrix(0.26458333,0,0,0.26458333,26.004765,32.808338)" />
    <path
       id="path875"
       style="opacity:1;fill:#000000;stroke:none;stroke-width:0.714286"
       transform="matrix(0.26458333,0,0,0.26458333,26.004765,32.808338)"
       d="M 294.9082,0.16601562 C 290.02599,0.10515485 285.20024,3.4267046 277.80273,10.824219 258.9536,29.67336 249.52417,50.649058 244.87305,83.925781 c -1.55497,11.125322 -1.59486,34.709259 -0.0781,45.970699 0.58197,4.32107 1.63002,12.1215 2.33008,17.33399 l 1.20703,8.98047 -3.85742,3.40234 c -7.14049,6.29854 -21.67889,19.94023 -30.00391,28.15234 -21.3256,21.03645 -38.22838,45.6689 -44.84179,65.50391 -8.96591,26.89064 -7.21463,55.66728 4.91406,80.45313 15.13914,30.93791 35.84076,50.98745 61.0625,58.94336 8.3773,2.64251 15.32604,3.40234 30.9043,3.40234 h 12.97461 l 1.08789,6.08594 c 2.5387,14.21307 4.22415,26.98837 4.98437,37.32031 0.76022,10.33194 0.5664,18.26108 -0.53516,22.56445 -3.02795,11.82905 -11.35745,23.25584 -19.7207,27.37305 -4.33217,2.13272 -4.97046,2.23965 -12.9707,2.50391 -4.62709,0.15283 -7.91557,0.0532 -10.36133,-0.36133 -2.44576,-0.41452 -4.03172,-1.1145 -5.43555,-2.21875 -0.56951,-0.44798 -0.94373,-0.7918 -1.16797,-1.03906 0.32579,-0.11037 0.84533,-0.23345 1.58399,-0.35157 0.94274,-0.15075 2.12863,-0.60344 3.45898,-1.21484 1.33036,-0.6114 2.76385,-1.38429 4.01563,-2.19336 7.83286,-5.06262 12.52807,-14.04305 13.23437,-25.04102 0.842,-13.11094 -4.97104,-24.13019 -13.8125,-30.36914 -8.84146,-6.23895 -20.74267,-7.68619 -31.86718,-1.7832 -8.31285,4.41104 -16.49349,15.30982 -19.17969,25.4043 -2.20987,8.30447 -1.13035,20.72309 2.48437,28.79101 3.39647,7.58074 11.72968,15.96773 21.53321,21.8711 4.8558,2.92402 14.68619,6.63098 20.21679,7.62109 2.27492,0.40727 8.14924,0.56747 13.49219,0.43945 11.12135,-0.26645 16.29754,-1.56364 25.74219,-6.45312 11.70204,-6.05813 20.52401,-14.53429 24.96749,-25.68389 1.82147,-4.57045 2.82235,-6.45923 3.43867,-13.8415 1.13138,-13.55208 -0.40892,-38.40705 -4.31632,-61.23633 -1.29626,-7.5735 -1.90795,-11.20281 -1.59765,-12.76563 0.15515,-0.7814 0.38614,-1.06258 1.04296,-1.47656 0.65683,-0.41398 1.76751,-0.83555 3.30665,-1.46679 10.62409,-4.35738 23.70636,-14.88374 30.67968,-24.66016 11.69149,-16.39118 16.34131,-37.7247 13.04102,-59.61719 -4.08273,-27.08276 -20.83033,-49.96117 -42.98242,-58.48437 -7.01465,-2.69894 -12.64049,-3.73829 -20.21289,-3.73828 -2.48881,0 -3.96708,-0.062 -4.70118,-0.20899 -0.36704,-0.0735 -0.51959,-0.16021 -0.55859,-0.19141 -0.039,-0.0312 -0.0384,-0.016 -0.0801,-0.16406 0.0207,0.0737 -0.0415,-0.20918 -0.0937,-0.55664 -0.0523,-0.34746 -0.11816,-0.8294 -0.19726,-1.42383 -0.15821,-1.18885 -0.36515,-2.83342 -0.60547,-4.81054 -0.48064,-3.95426 -1.09592,-9.23904 -1.72852,-14.89844 l -2.24609,-20.10352 3.23828,-2.83007 c 5.40966,-4.73225 16.40197,-18.0581 22.87305,-27.63477 10.08834,-14.92991 20.09803,-38.41212 23.57812,-55.33594 3.34209,-16.252764 4.93586,-36.639153 3.72791,-52.017193 -0.37337,-4.753151 -0.94638,-11.223527 -2.10756,-17.725894 -0.50472,-2.82631 -1.18578,-5.804416 -1.97599,-8.409529 -0.95882,-3.160973 -2.08429,-6.307418 -2.97142,-8.618081 C 314.45848,13.24095 307.18393,4.5984758 299.74219,1.3066406 298.12749,0.59238676 296.53512,0.18629625 294.9082,0.16601562 Z M 294.47461,53.490234 c 4.07647,-0.20477 7.93748,2.05416 10.20312,6.734375 0.71439,1.475715 1.04296,2.312597 1.20118,3.832032 0.15821,1.519434 0.11165,3.742947 -0.0469,7.705078 -0.30195,7.546837 -0.64319,9.450068 -2.91601,16.205078 -6.25283,18.583893 -19.06368,38.272713 -32.79102,50.429683 -3.25458,2.88227 -5.00638,4.33362 -5.58984,4.59766 -0.005,0.002 7.7e-4,-9e-5 -0.004,0.002 -0.0483,-0.0841 -0.19448,-0.33705 -0.40641,-0.85742 -0.20733,-0.50908 -0.42349,-2.06614 -0.61391,-4.04101 -0.19042,-1.97488 -0.43826,-4.68541 -0.46326,-7.03321 -0.0524,-4.92567 0.0302,-9.86559 0.4953,-14.76953 1.11426,-11.74716 4.65448,-25.181849 9.01973,-36.175961 4.36525,-10.994112 9.96266,-19.377295 14.5623,-23.415834 2.35148,-2.064635 4.90367,-3.090025 7.34961,-3.212891 z M 255.43555,214.06641 c 0.7867,5.06902 0.19791,1.03364 0.71093,4.98242 0.38406,3.04726 0.84743,7.07224 1.29493,11.33203 0.60502,5.75932 0.95942,9.69288 1.08789,12.24219 0.0642,1.27465 0.0696,2.20538 0.0293,2.8164 -0.0403,0.61102 -0.23516,0.90838 -0.0762,0.7168 0.027,-0.0325 -0.2092,0.19431 -0.53515,0.43164 -0.32596,0.23733 -0.76684,0.53455 -1.28125,0.86328 -1.02884,0.65746 -2.35439,1.44194 -3.71094,2.18555 -14.95528,8.19791 -27.00417,23.83223 -33.17188,38.4043 -1.14382,2.70243 -1.49137,4.28326 -2.06727,7.02148 -0.53435,2.54067 -1.0818,5.75139 -0.85599,11.89602 -0.008,6.51104 0.92503,10.16379 1.21818,12.72703 0.293,2.56324 0.88998,4.289 1.99415,7.375 3.19453,8.92836 6.32498,13.83786 13.33398,20.91015 6.63928,6.69923 12.23121,10.11477 17.98828,10.76368 2.15835,0.24326 4.33216,0.009 6.05078,-0.54297 0.85931,-0.27579 1.60781,-0.62616 2.20117,-1.09766 0.59337,-0.4715 1.08204,-1.13517 1.08204,-1.95313 0,-0.3339 -0.0741,-0.50318 -0.15625,-0.73242 -0.0822,-0.22923 -0.19179,-0.48074 -0.32618,-0.76758 -0.26876,-0.57364 -0.64129,-1.28408 -1.09961,-2.0996 -0.91662,-1.63106 -2.169,-3.67987 -3.54882,-5.77344 -3.83181,-5.8139 -5.83174,-8.95814 -6.88868,-11.49805 -1.05693,-2.53991 -1.23901,-4.54415 -1.41796,-8.35937 -0.51317,-10.94034 2.97045,-19.68155 10.32031,-26.07813 1.46834,-1.27789 3.69004,-2.73146 5.58203,-3.74609 0.94599,-0.50732 1.81766,-0.90793 2.4375,-1.125 0.13581,-0.0476 0.18992,-0.0511 0.29687,-0.0801 0.0146,0.0826 0.0246,0.12169 0.041,0.21875 0.10474,0.61843 0.24427,1.52457 0.41406,2.66992 0.33959,2.29071 0.79591,5.54292 1.32813,9.43164 1.06444,7.77744 2.43088,18.1056 3.76758,28.42969 1.33669,10.32409 2.64427,20.64399 3.59179,28.40625 0.47377,3.88113 0.85728,7.12315 1.10938,9.40234 0.12604,1.1396 0.2209,2.04119 0.27539,2.65235 0.01,0.10998 0.0103,0.15533 0.0176,0.24609 -0.22627,0.0579 -0.4708,0.11904 -0.81055,0.18945 -0.86126,0.17849 -2.02234,0.38055 -3.25391,0.5586 -11.69592,1.69095 -26.28763,-0.24908 -37.40625,-4.98047 -10.0936,-4.29521 -23.64982,-14.93959 -30.79492,-24.20313 -3.95285,-5.12481 -8.98674,-14.99697 -10.28711,-20.07226 -3.82473,-14.92776 -1.07703,-33.55683 7.79297,-51.99219 9.13438,-18.98482 23.15451,-35.85761 46.89063,-56.34961 2.51004,-2.16698 4.23682,-3.62116 5.40234,-4.50781 0.97945,-0.7451 1.35176,-0.84858 1.42969,-0.91406 z m 29.63867,78.53711 c 0.40628,-0.0291 1.00362,-0.017 1.68359,0.0742 3.44967,0.46271 8.1547,2.25388 12.07822,5.49442 3.92351,3.24054 7.59001,7.62089 9.16397,12.12668 0.21438,0.61372 0.42275,1.09694 0.619,1.56184 0.35954,0.8517 0.4862,1.53814 0.652,2.17868 0.15948,0.6161 0.26356,1.18974 0.378,1.82712 0.23646,1.31688 0.62048,2.99152 0.713,5.88208 0.0242,0.757 0.13433,1.5974 0.12823,2.53661 -0.10977,17.04087 -5.42347,33.07636 -12.77148,39.71484 -1.48404,1.34075 -2.53031,2.06927 -2.95117,2.22266 -0.21043,0.0767 -0.15064,0.0273 -0.0742,0.0703 0.0764,0.043 0.0123,0.0371 -0.0703,-0.21094 0.0436,0.13071 0.0202,0.0706 0.0137,0.0352 -0.007,-0.0355 -0.0169,-0.0952 -0.0293,-0.17188 -0.0247,-0.15339 -0.0598,-0.3785 -0.10156,-0.66406 -0.0836,-0.57112 -0.19822,-1.38993 -0.33984,-2.41797 -0.28325,-2.05607 -0.67333,-4.95163 -1.13282,-8.40625 -0.91897,-6.90923 -2.11677,-16.05502 -3.30664,-25.2168 -1.18987,-9.16177 -2.37078,-18.33818 -3.2539,-25.30468 -0.44157,-3.48325 -0.81,-6.41457 -1.06641,-8.51367 -0.1282,-1.04956 -0.2288,-1.89176 -0.29687,-2.48829 -0.016,-0.13999 -0.0229,-0.21782 -0.0352,-0.33007 z"
       sodipodi:nodetypes="ssssccccssssccsssssscssssssssssssssssscssssssccsscccssssssssssssssccssssssssscsssssssssccssscsssssssssssccsssssccsssssssssssssssssssssscccsssssssss" />
  </g>
</svg>
