<?xml version="1.0" encoding="UTF-8" standalone="no"?>
<svg
   xmlns:dc="http://purl.org/dc/elements/1.1/"
   xmlns:cc="http://creativecommons.org/ns#"
   xmlns:rdf="http://www.w3.org/1999/02/22-rdf-syntax-ns#"
   xmlns:svg="http://www.w3.org/2000/svg"
   xmlns="http://www.w3.org/2000/svg"
   xmlns:sodipodi="http://sodipodi.sourceforge.net/DTD/sodipodi-0.dtd"
   xmlns:inkscape="http://www.inkscape.org/namespaces/inkscape"
   width="30.9802in"
   height="10.326478in"
   viewBox="0 0 786.89708 262.29254"
   version="1.1"
   id="svg8"
   sodipodi:docname="home-logo.svg"
   inkscape:version="1.0.2 (e86c870879, 2021-01-15, custom)">
  <defs
     id="defs2" />
  <sodipodi:namedview
     id="base"
     pagecolor="#ffffff"
     bordercolor="#666666"
     borderopacity="1.0"
     inkscape:pageopacity="0.0"
     inkscape:pageshadow="2"
     inkscape:zoom="0.175"
     inkscape:cx="1645.0973"
     inkscape:cy="575.52573"
     inkscape:document-units="mm"
     inkscape:current-layer="layer1"
     inkscape:document-rotation="0"
     showgrid="false"
     fit-margin-top="0"
     fit-margin-left="0"
     fit-margin-right="0"
     fit-margin-bottom="0"
     units="in"
     inkscape:lockguides="true"
     inkscape:snap-grids="true"
     inkscape:window-width="1368"
     inkscape:window-height="850"
     inkscape:window-x="-6"
     inkscape:window-y="-6"
     inkscape:window-maximized="1" />
  <metadata
     id="metadata5">
    <rdf:RDF>
      <cc:Work
         rdf:about="">
        <dc:format>image/svg+xml</dc:format>
        <dc:type
           rdf:resource="http://purl.org/dc/dcmitype/StillImage" />
        <dc:title></dc:title>
      </cc:Work>
    </rdf:RDF>
  </metadata>
  <g
     inkscape:label="Layer 1"
     inkscape:groupmode="layer"
     id="layer1"
     transform="translate(-77.19007,-119.67895)">
    <path
       id="path934"
       style="font-style:italic;font-variant:normal;font-weight:normal;font-stretch:normal;font-size:19.6272px;line-height:1.25;font-family:Gabriola;-inkscape-font-specification:Gabriola;font-variant-ligatures:normal;font-variant-caps:normal;font-variant-numeric:normal;font-variant-east-asian:normal;letter-spacing:0.264583px;fill:#fed136;fill-opacity:1;fill-rule:nonzero;stroke:none;stroke-width:7.74592"
       d="m 232.35476,119.67895 c -1.58618,0 -3.17671,0.17067 -4.75509,0.49559 -1.68873,0.34757 -3.31548,0.91784 -4.83405,1.69303 -1.54926,0.76414 -2.97585,1.78275 -4.1758,3.01716 -1.42608,1.46695 -2.36721,3.34138 -2.78571,5.23581 l 0.0479,-0.19749 c -2.14101,8.09296 -4.06541,15.47191 -5.76088,22.14083 a 5.2560366,5.0443897 0 0 0 -0.005,0.0335 c -1.64255,6.65672 -3.16036,12.87886 -4.55497,18.66887 a 5.2560366,5.0443897 0 0 0 -0.0138,0.0383 c -1.34376,5.78547 -2.61279,11.2889 -3.80719,16.5109 -0.89432,3.91002 -1.76047,7.82362 -2.6277,11.73499 -5.40012,0.0479 -10.76883,0.10036 -15.89236,0.18167 -6.47899,0.0479 -12.95852,0.1544 -19.43633,0.30834 -6.47632,0.10288 -13.05306,0.25486 -19.72593,0.45994 -4.51937,0.10426 -9.3368,0.26774 -14.10201,0.41927 1.23468,-5.57658 2.49226,-11.24223 3.52287,-15.84873 l 0.005,-0.0238 c 1.49018,-6.48988 2.78174,-12.1669 3.87567,-17.02635 1.09403,-4.85995 2.01318,-8.95469 2.75933,-12.28078 a 5.2560366,5.0443897 0 0 0 0,-0.0138 c 0.74812,-3.38606 1.32928,-6.15914 1.743,-8.38937 l 0.007,-0.0238 c 0.6634,-3.36192 1.15261,-6.39284 1.46919,-9.10702 0.35314,-3.02732 0.22244,-5.8566 -0.67406,-8.5106 -0.91767,-2.90478 -3.1503,-5.48966 -5.93989,-6.90861 -2.95352,-1.57816 -6.22911,-2.00127 -10.02095,-2.00127 -3.90437,0 -8.46741,0.54338 -13.88608,1.55148 -5.40068,0.95354 -11.88269,2.38077 -19.510061,4.29073 a 5.2560366,5.0443897 0 0 0 -3.912538,4.48778 l -0.521323,6.36783 a 5.2560366,5.0443897 0 0 0 6.029418,5.38233 c 5.111287,-0.74425 9.184594,-1.09673 12.037784,-1.09673 2.05142,0 3.48344,0.25578 4.12318,0.47473 a 5.2560366,5.0443897 0 0 0 0.15795,0.0479 c 0.57277,0.17686 0.33676,0.1338 0.26854,0.0238 a 5.2560366,5.0443897 0 0 0 0.0842,0.14204 c 0.0219,0.0335 0.25276,0.46038 0.25276,1.55653 0,1.20881 -0.19586,2.97548 -0.6477,5.15993 a 5.2560366,5.0443897 0 0 0 -0.0158,0.0717 c -2.38145,12.45347 -4.83716,24.72845 -7.36695,36.82216 -2.53127,12.10077 -5.182374,24.37825 -7.962003,36.83737 -2.782223,12.47077 -5.689298,25.32683 -8.720282,38.56579 -3.029591,13.18162 -6.285052,27.10606 -9.762915,41.77484 a 5.2560366,5.0443897 0 0 0 4.491781,6.12528 l 1.3428,0.15624 a 5.2560366,5.0443897 0 0 0 1.321735,-0.009 l 18.125124,-2.30456 a 5.2560366,5.0443897 0 0 0 4.44965,-3.93695 l 18.38842,-82.12465 c 5.71422,-0.27347 11.37586,-0.54263 16.72971,-0.7482 6.68392,-0.25484 13.24775,-0.45322 19.68381,-0.60635 6.48596,-0.15303 12.92028,-0.25723 19.30467,-0.30839 4.35513,-0.0335 8.93309,-0.0383 13.4701,-0.0479 -0.25337,1.16811 -0.50471,2.3236 -0.7583,3.49731 -0.70009,3.24048 -1.40605,6.58385 -2.10633,10.03186 -0.69687,3.43103 -1.41365,6.98807 -2.15905,10.66852 -0.7469,3.63729 -1.5247,7.48214 -2.3222,11.53287 a 5.2560366,5.0443897 0 0 0 0,0.0238 l -3.35435,17.42052 v -0.0238 c -1.22878,6.21545 -1.9178,11.50723 -2.02741,16.01047 -0.10902,4.48911 0.30382,8.34485 1.57979,11.72994 a 5.2560366,5.0443897 0 0 0 0,0.005 c 1.24069,3.29148 3.40871,6.20709 6.49279,7.96994 2.90728,1.68295 6.30996,2.41059 9.86299,2.41059 2.42008,0 4.92305,-0.23807 7.50915,-0.68762 2.62677,-0.39681 5.39434,-1.00021 8.3306,-1.80927 l -0.0183,0.009 c 3.00018,-0.81217 6.18927,-1.83044 9.58387,-3.04742 3.42366,-1.2095 7.09912,-2.61991 11.03727,-4.23005 a 5.2560366,5.0443897 0 0 0 3.15422,-5.26612 l -0.82146,-6.28689 a 5.2560366,5.0443897 0 0 0 -7.02464,-4.10883 c -3.26725,1.15243 -5.88351,1.8432 -7.6513,2.12264 -1.988,0.27012 -3.85974,0.40398 -5.60291,0.40398 -2.08555,0 -3.18345,-0.40874 -3.74931,-0.77845 -0.45751,-0.31889 -0.94937,-0.85426 -1.36913,-2.39047 v -0.005 c -0.43888,-1.66966 -0.65014,-4.34346 -0.37912,-7.82831 0.27777,-3.57528 0.91923,-8.04098 1.93783,-13.33199 v -0.009 c 1.58759,-8.16575 3.1497,-15.99789 4.68662,-23.49522 1.53873,-7.50615 3.07987,-14.85701 4.61822,-22.05491 l -0.0138,0.0335 c 1.58498,-7.18468 3.19919,-14.29387 4.834,-21.32723 l 0.005,-0.0238 c 1.68333,-7.07928 3.41551,-14.23293 5.19734,-21.46355 l 0.005,-0.0335 c 1.83034,-7.22589 3.76358,-14.6562 5.79244,-22.29244 l 0.005,-0.0238 c 2.08088,-7.64463 4.31333,-15.64697 6.69297,-24.01075 a 5.2560366,5.0443897 0 0 0 -2.71725,-5.84216 c -1.81614,-0.87193 -3.72354,-1.53203 -5.68712,-1.98114 -1.95651,-0.49802 -3.9086,-0.77294 -5.83985,-0.77294 z m 281.79248,65.52286 c -4.97691,0 -10.0373,1.48395 -15.19204,4.10373 -0.002,7.3e-4 -0.002,0.005 -0.005,0.005 -0.005,0.002 -0.0138,0.002 -0.0138,0.005 -5.34815,2.69501 -10.59875,6.93513 -16.03454,12.63461 a 5.2560366,5.0443897 0 0 0 -0.0138,0.0238 c -4.73925,5.01733 -9.66249,11.86981 -14.69702,19.4572 0.70782,-3.84894 1.09531,-7.65307 1.09531,-11.39136 0,-4.00563 -0.52518,-7.72639 -1.66925,-11.13353 -1.18441,-3.52706 -3.18726,-6.67225 -5.98209,-9.05645 -3.13691,-2.67616 -7.34564,-3.88136 -11.7007,-3.88136 -4.9817,0 -10.03633,1.49111 -15.18678,4.10873 -0.002,7.3e-4 -0.002,0.005 -0.005,0.005 -0.005,0.002 -0.0138,0.002 -0.0138,0.005 -5.3548,2.69838 -10.58697,6.94884 -15.97665,12.65484 -4.47709,4.73989 -9.12097,11.2942 -13.82815,18.26454 1.0231,-3.88101 1.99633,-7.57302 2.69086,-10.30474 l -0.0138,0.0479 c 0.90284,-3.40583 1.44718,-5.53307 1.71665,-6.91871 a 5.2560366,5.0443897 0 0 0 0.0137,-0.0383 c 0.89676,-4.84333 1.09888,-9.07181 -1.61665,-12.7862 -2.29403,-3.23771 -6.50995,-4.87697 -10.49481,-4.87697 -1.81262,0 -3.71365,0.25961 -6.08208,0.70279 a 5.2560366,5.0443897 0 0 0 -0.0183,0.005 c -2.31078,0.44224 -4.93494,1.05828 -7.9093,1.84967 -2.97019,0.79042 -6.21841,1.73448 -9.75241,2.82509 -3.48622,1.04022 -7.13161,2.20585 -10.9477,3.49726 a 5.2560366,5.0443897 0 0 0 -3.50709,4.75562 v 5.52384 a 5.2560366,5.0443897 0 0 0 6.61394,4.87193 c 3.30759,-0.85067 6.20091,-1.52152 8.65183,-2.00644 2.35217,-0.46516 4.2312,-0.66209 5.4976,-0.66209 0.43362,0 0.41976,0.0238 0.59501,0.056 0.0238,0.11705 0.043,0.0635 0.043,0.65735 a 5.2560366,5.0443897 0 0 0 0.005,0.16632 c 0.0335,0.90431 -0.0893,2.35898 -0.44223,4.21998 -0.43841,2.25552 -1.0768,5.36957 -1.91678,9.33442 -0.8354,3.94317 -1.84643,8.44266 -3.03316,13.47854 a 5.2560366,5.0443897 0 0 0 -0.0138,0.0335 c -1.14278,5.00903 -2.38647,10.42514 -3.72821,16.25313 -1.33788,5.75974 -2.72289,11.59258 -4.16003,17.50646 -1.4355,5.8555 -2.89624,11.63623 -4.38128,17.33963 a 5.2560366,5.0443897 0 0 0 -0.0137,0.0383 c -1.4343,5.69835 -2.819,10.957 -4.14957,15.773 a 5.2560366,5.0443897 0 0 0 4.73407,6.3274 l 1.19536,0.0799 a 5.2560366,5.0443897 0 0 0 1.02684,-0.0335 l 15.96083,-1.99629 a 5.2560366,5.0443897 0 0 0 4.42336,-3.80056 c 1.89172,-7.38499 4.21991,-14.74416 6.98778,-22.09027 l 0.0138,-0.0238 c 5.7e-4,-10e-4 -5.7e-4,-0.002 0,-0.005 2.82168,-7.35423 5.90388,-14.34758 9.2469,-20.97844 l 0.0138,-0.0238 c 3.41017,-6.66363 6.93868,-12.83112 10.56861,-18.50709 a 5.2560366,5.0443897 0 0 0 0.0138,-0.0138 c 3.62564,-5.71906 7.19427,-10.61705 10.67917,-14.68643 3.48371,-4.06817 6.74844,-7.13455 9.65759,-9.20299 a 5.2560366,5.0443897 0 0 0 0.043,-0.0335 c 2.85728,-2.07483 4.92338,-2.66336 5.85569,-2.66336 1.2012,0 0.91907,-0.2878 1.67981,1.36452 0.61473,1.33505 1.00697,4.80298 0.0138,10.02172 -0.51888,2.66695 -1.32326,6.1413 -2.40124,10.37552 a 5.2560366,5.0443897 0 0 0 -0.0138,0.0479 c -1.03735,4.26849 -2.34662,9.49396 -3.93359,15.66687 a 5.2560366,5.0443897 0 0 0 -0.0138,0.0335 c -1.53972,6.18252 -3.3522,13.41313 -5.43968,21.69607 -2.09128,8.29812 -4.45598,17.82512 -7.09312,28.57431 a 5.2560366,5.0443897 0 0 0 4.76563,6.19091 l 1.19534,0.0799 a 5.2560366,5.0443897 0 0 0 1.02684,-0.0335 l 15.96085,-1.99624 a 5.2560366,5.0443897 0 0 0 4.42338,-3.80049 c 1.88859,-7.37295 4.26616,-14.72472 7.12993,-22.06501 a 5.2560366,5.0443897 0 0 0 0,-0.009 c 2.87869,-7.42849 6.02126,-14.51686 9.42589,-21.27158 3.40992,-6.76515 6.95373,-13.00665 10.62656,-18.72436 l 0.005,-0.005 c 3.72604,-5.77399 7.35096,-10.73407 10.84771,-14.86844 l 0.0138,-0.009 c 0.002,-0.005 0.009,-0.009 0.0138,-0.0138 3.53965,-4.12349 6.82338,-7.25227 9.71024,-9.37985 a 5.2560366,5.0443897 0 0 0 0.043,-0.0335 c 2.82251,-2.12352 4.82505,-2.6836 5.55551,-2.6836 1.71641,0 1.49124,-0.12056 2.15902,1.27861 a 5.2560366,5.0443897 0 0 0 0.0479,0.0956 c 0.56474,1.12038 1.02311,4.36363 0.0841,9.39505 -0.35091,1.70342 -1.06794,4.50038 -2.13791,8.25287 a 5.2560366,5.0443897 0 0 0 -0.0138,0.0383 c -1.0392,3.76707 -2.23076,7.99494 -3.57026,12.69012 a 5.2560366,5.0443897 0 0 0 -0.0138,0.0479 c -1.30011,4.73237 -2.62704,9.71781 -3.97577,14.95926 a 5.2560366,5.0443897 0 0 0 -0.0138,0.0383 c -1.30957,5.28512 -2.44105,10.34899 -3.40177,15.18669 a 5.2560366,5.0443897 0 0 0 -0.0138,0.0479 c -0.76058,4.01654 -1.37099,7.78672 -1.83254,11.32049 -0.48224,3.69315 -0.61731,7.02662 -0.32128,10.07236 a 5.2560366,5.0443897 0 0 0 0.0138,0.0907 c 0.37578,3.21991 1.40061,6.22536 3.43859,8.65723 2.40267,2.86718 6.29783,4.10872 9.98937,4.10872 2.92329,0 6.04195,-0.4988 9.47862,-1.39486 3.36998,-0.82784 6.75926,-1.92018 10.17361,-3.26977 l 0.0138,-0.005 c 3.4316,-1.33772 6.74392,-2.81447 9.93142,-4.42721 3.20953,-1.62376 5.98683,-3.24896 8.35699,-4.93244 a 5.2560366,5.0443897 0 0 0 2.07471,-4.76576 l -0.59505,-3.99248 a 5.2560366,5.0443897 0 0 0 -7.33014,-3.90156 c -2.90604,1.23375 -5.67826,2.18795 -8.32003,2.88058 -2.50402,0.61913 -4.78928,0.90972 -6.85618,0.90972 -1.05748,0 -1.50861,-0.14821 -1.81669,-0.24763 -0.17732,-0.63826 -0.36572,-2.05661 -0.24765,-4.12391 0.17778,-2.21602 0.61802,-5.29783 1.33223,-9.12722 l 0.005,-0.0335 c 10e-4,-0.009 0.002,-0.0137 0.005,-0.0238 0.42836,-2.14885 1.00885,-4.72292 1.73775,-7.72228 0.78386,-3.07363 1.61869,-6.29826 2.50129,-9.67808 v -0.005 c 0.005,-0.0238 0.0138,-0.0383 0.0138,-0.0558 0.93376,-3.38726 1.88822,-6.82052 2.86993,-10.30475 l 0.0138,-0.0383 c 1.04121,-3.57124 1.98465,-6.94224 2.83302,-10.12278 l 0.0183,-0.0717 c 0.88889,-3.15193 1.66057,-6.01765 2.31173,-8.59149 l 0.0138,-0.0635 c 0.69831,-2.61991 1.21595,-4.71589 1.54813,-6.36783 a 5.2560366,5.0443897 0 0 0 0.0138,-0.0558 c 1.05243,-5.5759 1.43925,-10.48557 1.03215,-14.85327 -0.39252,-4.21136 -1.38349,-7.93126 -3.24909,-11.10822 -1.72961,-3.07515 -4.21612,-5.65787 -7.35639,-7.24224 -2.8536,-1.46358 -6.05926,-2.19833 -9.32063,-2.19833 z m -198.8445,0.0799 c -6.27526,0 -12.36488,1.05159 -18.13566,3.16368 -5.63342,2.06174 -10.94255,4.88621 -15.88713,8.42469 -4.90869,3.51281 -9.42364,7.61767 -13.54382,12.2909 a 5.2560366,5.0443897 0 0 0 0,0.005 c -4.02859,4.57486 -7.64203,9.49903 -10.82659,14.76223 a 5.2560366,5.0443897 0 0 0 -0.005,0.009 c -3.12476,5.19685 -5.78372,10.58658 -7.9725,16.16211 -2.18811,5.57382 -3.82038,11.10679 -4.8762,16.59167 v -0.0238 c -1.28097,6.47907 -1.60111,12.8824 -0.9531,19.15903 0.65215,6.31789 2.32607,12.13126 5.09735,17.30936 a 5.2560366,5.0443897 0 0 0 0.0138,0.0238 c 2.82185,5.21342 6.8611,9.548 11.9009,12.76599 a 5.2560366,5.0443897 0 0 0 0.0286,0.0138 c 5.35195,3.37849 11.83704,4.97295 18.99402,4.97295 6.27277,0 12.35245,-1.05685 18.11457,-3.16368 5.68223,-2.05984 11.02298,-4.87969 15.97667,-8.42469 4.90412,-3.50957 9.39994,-7.5922 13.47538,-12.22022 4.07074,-4.61762 7.70143,-9.53493 10.88451,-14.74201 a 5.2560366,5.0443897 0 0 0 0.0138,-0.0238 c 3.17449,-5.2466 5.83978,-10.66694 7.98305,-16.2531 10e-4,-0.002 -0.001,-0.009 0,-0.009 2.1826,-5.56129 3.83548,-11.07462 4.93932,-16.53608 a 5.2560366,5.0443897 0 0 0 0.0138,-0.0559 c 1.225,-6.46521 1.52624,-12.85251 0.87939,-19.11864 -0.65179,-6.31404 -2.32902,-12.1024 -5.10257,-17.2335 l -0.005,-0.005 c -2.82239,-5.2711 -6.89351,-9.65308 -12.00088,-12.87716 -5.35435,-3.37996 -11.83993,-4.96788 -18.99403,-4.96788 z m 306.77373,0.22702 c -6.15424,0 -12.17257,0.99517 -17.95129,2.9767 a 5.2560366,5.0443897 0 0 0 -0.0137,0.005 c -5.6214,1.94612 -10.96051,4.64895 -15.99247,8.0608 -5.0152,3.34947 -9.67129,7.31767 -13.94928,11.88163 -4.19359,4.47573 -7.96305,9.32797 -11.30583,14.53987 -3.34573,5.21649 -6.19666,10.70234 -8.54649,16.45017 -2.35137,5.7517 -4.08907,11.53443 -5.19737,17.33963 -1.38052,7.15505 -1.64243,14.00084 -0.71091,20.48321 a 5.2560366,5.0443897 0 0 0 0.0137,0.0479 c 0.97999,6.38526 3.00471,12.14963 6.14522,17.14256 3.15848,5.02138 7.44404,9.1072 12.65919,12.02816 5.35387,2.99857 11.58115,4.44735 18.31469,4.44735 3.97572,0 8.04997,-0.55614 12.20629,-1.62224 4.21361,-1.02899 8.39968,-2.60897 12.54853,-4.71525 a 5.2560366,5.0443897 0 0 0 0.0479,-0.0238 c 4.13659,-2.15531 8.19902,-4.78516 12.19571,-7.8688 a 5.2560366,5.0443897 0 0 0 0.0383,-0.0335 c 4.04386,-3.17474 7.93478,-6.86237 11.69025,-11.04766 a 5.2560366,5.0443897 0 0 0 0.32653,-0.39922 c 0.42072,-0.57767 0.81785,-1.3467 1.05843,-2.24895 0.45562,-1.70816 -0.0756,-3.66506 -0.88997,-4.93251 -0.43027,-0.74342 -0.92919,-1.47122 -1.57448,-2.06193 -0.65505,-0.64065 -1.37147,-1.21874 -2.14846,-1.66279 l 0.6003,0.40398 c -0.47093,-0.36333 -0.88123,-0.67009 -1.41655,-1.00057 a 5.2560366,5.0443897 0 0 0 -6.39271,0.52028 c -5.53581,4.86745 -10.64143,8.27009 -15.14465,10.27445 -4.5826,2.01089 -8.62532,2.90088 -12.18,2.90088 -3.53211,0 -6.33725,-0.79439 -8.89399,-2.39042 -2.58891,-1.64778 -4.69769,-3.91133 -6.42962,-7.0905 -1.71378,-3.19618 -2.89553,-7.2045 -3.39124,-12.11912 -0.42503,-4.21228 0.0383,-9.14981 0.85305,-14.3478 7.83027,-0.81288 15.49983,-1.7551 22.58533,-3.16874 a 5.2560366,5.0443897 0 0 0 0.0335,-0.005 c 8.49262,-1.7473 16.09371,-4.04324 22.80644,-6.92373 6.82745,-2.90829 12.58687,-6.52256 17.15621,-10.92641 4.7528,-4.53154 7.90402,-10.10478 9.14159,-16.28842 a 5.2560366,5.0443897 0 0 0 0.005,-0.0238 c 0.82026,-4.21927 0.72214,-8.30849 -0.53713,-12.05855 -1.18871,-3.53986 -3.23793,-6.70528 -6.02942,-9.18778 -2.73226,-2.47995 -6.06514,-4.32768 -9.80502,-5.5491 -3.72582,-1.21687 -7.72807,-1.80425 -11.91668,-1.80425 z m -8.87293,19.0631 c 4.1844,0.0635 5.43618,2.24334 5.77663,2.7846 1.60025,2.35485 0.70709,10.73464 1.20592,8.0457 -0.5217,2.63459 -1.66035,4.84943 -3.64403,6.97423 -2.05023,2.14489 -4.88374,4.14451 -8.62548,5.913 -3.76104,1.72689 -8.42361,3.23206 -13.9651,4.44237 -0.002,6.2e-4 -0.009,-7.1e-4 -0.0138,0 -3.13441,0.66135 -7.02551,0.97655 -10.62129,1.42514 0.16976,-0.43363 0.27012,-0.83632 0.44749,-1.2736 1.27091,-3.00216 2.70462,-5.92725 4.30742,-8.78852 1.56879,-2.8004 3.30998,-5.42404 5.22905,-7.86888 l 0.005,-0.005 c 1.91593,-2.42844 3.95491,-4.48893 6.11366,-6.22118 a 5.2560366,5.0443897 0 0 0 0.0527,-0.0383 c 2.11142,-1.73764 4.30343,-3.06103 6.62972,-4.02796 2.23127,-0.90722 4.54347,-1.3594 7.09841,-1.3594 z M 305.08171,206.184 c 2.66047,0 4.73452,0.47332 6.44018,1.29888 1.87825,0.90927 3.41028,2.10184 4.74979,3.70947 a 5.2560366,5.0443897 0 0 0 0.0383,0.0479 c 1.34917,1.58064 2.47318,3.53247 3.34383,5.9635 a 5.2560366,5.0443897 0 0 0 0.0138,0.0335 c 0.91217,2.50249 1.57972,5.25071 1.98519,8.26298 a 5.2560366,5.0443897 0 0 0 0.0138,0.0804 c 0.4432,2.91905 0.5822,6.0084 0.40016,9.28389 a 5.2560366,5.0443897 0 0 0 0,0.0637 c -0.13859,3.27857 -0.53522,6.55696 -1.1848,9.84987 -0.56323,2.84887 -1.34337,6.01082 -2.35385,9.47593 a 5.2560366,5.0443897 0 0 0 -0.0138,0.0635 c -0.94167,3.39068 -2.12346,6.84533 -3.54922,10.36538 -1.40327,3.41396 -3.04443,6.73227 -4.9183,9.96109 -1.80815,3.11569 -3.83339,5.83461 -6.07153,8.1822 -2.17099,2.27713 -4.51075,4.05036 -7.05627,5.40759 -2.31991,1.1887 -4.7414,1.77891 -7.56173,1.77891 -2.64624,0 -4.7039,-0.47426 -6.41386,-1.29886 -1.82247,-0.90373 -3.34917,-2.09666 -4.6972,-3.71451 -1.39591,-1.67539 -2.55273,-3.67652 -3.47018,-6.06458 -0.91047,-2.55418 -1.58204,-5.31795 -1.98525,-8.31359 -0.40495,-3.01012 -0.54526,-6.15809 -0.41067,-9.45566 0.18647,-3.34251 0.60846,-6.63628 1.25855,-9.88524 v -0.005 c 0.56582,-2.81305 1.32845,-5.96278 2.29062,-9.43042 v -0.005 c 0.99311,-3.45346 2.19838,-6.91226 3.62292,-10.38063 1.40686,-3.42505 3.04785,-6.74913 4.92362,-9.98122 1.80702,-3.11379 3.8311,-5.82721 6.07154,-8.1771 2.17466,-2.28103 4.4834,-4.02714 6.96146,-5.32677 2.32589,-1.19547 4.75456,-1.78398 7.58283,-1.78398 z m 212.93071,80.75003 0.0138,0.0559 c -0.0138,-0.005 -0.0632,-0.005 -0.0743,-0.009 0.0183,0.0138 0.14066,0.19266 0.058,-0.0479 z" />
  </g>
  <style
     id="style871">.cls-1{fill:#fed136;}</style>
</svg>
